<svg xmlns="http://www.w3.org/2000/svg" viewBox="0 0 128 128" role="img" aria-label="Baby chibi mascot">
  <rect width="128" height="128" rx="36" fill="#f6efe5"/>
  <circle cx="64" cy="58" r="39" fill="#f2cdbf"/>
  <path d="M46 34c10-15 33-12 42 2-10-3-20-2-29 4 6 0 11 3 14 8-13 0-25-3-27-14Z" fill="#6d5546"/>
  <circle cx="50" cy="59" r="5" fill="#2d221d"/>
  <circle cx="78" cy="59" r="5" fill="#2d221d"/>
  <path d="M55 75c5 5 13 5 18 0" fill="none" stroke="#7a4b40" stroke-width="4" stroke-linecap="round"/>
  <circle cx="42" cy="72" r="6" fill="#e5a99e"/>
  <circle cx="86" cy="72" r="6" fill="#e5a99e"/>
  <path d="M34 114c5-24 55-27 61 0Z" fill="#fff3df"/>
  <path d="M43 101c12 10 31 13 45 0" fill="none" stroke="#d99d93" stroke-width="6" stroke-linecap="round"/>
  <circle cx="64" cy="98" r="5" fill="#c9a45d"/>
</svg>
