<svg xmlns="http://www.w3.org/2000/svg" viewBox="0 0 128 128" role="img" aria-label="Engineer chibi mascot">
  <rect width="128" height="128" rx="34" fill="#f6efe5"/>
  <circle cx="64" cy="62" r="35" fill="#efc8b8"/>
  <path d="M34 57c3-23 18-35 38-34 17 2 29 15 30 34-21-10-48-10-68 0Z" fill="#554339"/>
  <path d="M34 42c8-18 51-23 63 0H34Z" fill="#c9a45d"/>
  <rect x="37" y="38" width="54" height="12" rx="6" fill="#d8b469"/>
  <circle cx="51" cy="63" r="5" fill="#2d221d"/>
  <circle cx="77" cy="63" r="5" fill="#2d221d"/>
  <path d="M54 79c7 6 13 6 20 0" fill="none" stroke="#7a4b40" stroke-width="4" stroke-linecap="round"/>
  <path d="M35 113c7-19 52-21 58 0Z" fill="#7f8b85"/>
  <path d="M49 102h30" stroke="#fff3df" stroke-width="5" stroke-linecap="round"/>
  <path d="M89 91l15-15 7 7-15 15-9 2Z" fill="#8a6045"/>
</svg>
