<svg xmlns="http://www.w3.org/2000/svg" viewBox="0 0 128 128" role="img" aria-label="Puppy mascot">
  <rect width="128" height="128" rx="34" fill="#f6efe5"/>
  <path d="M39 45c-16-5-26 6-24 19 15 4 27-4 33-18" fill="#9a6b4d"/>
  <path d="M89 45c16-5 26 6 24 19-15 4-27-4-33-18" fill="#9a6b4d"/>
  <circle cx="64" cy="70" r="42" fill="#d8ad7c"/>
  <path d="M43 45c9-9 33-10 43 0-11 9-32 10-43 0Z" fill="#f5dcc0"/>
  <circle cx="50" cy="66" r="5" fill="#2d221d"/>
  <circle cx="78" cy="66" r="5" fill="#2d221d"/>
  <ellipse cx="64" cy="78" rx="8" ry="6" fill="#2d221d"/>
  <path d="M54 88c7 7 15 7 22 0" fill="none" stroke="#2d221d" stroke-width="4" stroke-linecap="round"/>
  <path d="M49 99c9 7 21 7 30 0" fill="none" stroke="#bf8b5e" stroke-width="7" stroke-linecap="round"/>
  <circle cx="42" cy="78" r="5" fill="#df9d91"/>
  <circle cx="86" cy="78" r="5" fill="#df9d91"/>
</svg>
