<svg xmlns="http://www.w3.org/2000/svg" viewBox="0 0 128 128" role="img" aria-label="Rabbit mascot">
  <rect width="128" height="128" rx="36" fill="#f6efe5"/>
  <path d="M45 49c-12-22-10-39 0-42 11 0 17 20 15 42" fill="#fff8ee"/>
  <path d="M83 49c12-22 10-39 0-42-11 0-17 20-15 42" fill="#fff8ee"/>
  <path d="M48 45c-6-15-4-26 0-28 4 3 7 16 6 29" fill="#e7b8ac"/>
  <path d="M80 45c6-15 4-26 0-28-4 3-7 16-6 29" fill="#e7b8ac"/>
  <circle cx="64" cy="72" r="39" fill="#fffaf2"/>
  <circle cx="50" cy="67" r="5" fill="#3d3028"/>
  <circle cx="78" cy="67" r="5" fill="#3d3028"/>
  <ellipse cx="64" cy="78" rx="6" ry="5" fill="#d99d93"/>
  <path d="M54 88c5 6 15 6 20 0" fill="none" stroke="#5a4336" stroke-width="4" stroke-linecap="round"/>
  <circle cx="42" cy="79" r="5" fill="#edc2b9"/>
  <circle cx="86" cy="79" r="5" fill="#edc2b9"/>
</svg>
