<svg xmlns="http://www.w3.org/2000/svg" viewBox="0 0 128 128" role="img" aria-label="Red panda mascot">
  <rect width="128" height="128" rx="34" fill="#f5eadf"/>
  <path d="M32 48l7-24 18 19" fill="#a85f3d"/>
  <path d="M96 48l-7-24-18 19" fill="#a85f3d"/>
  <circle cx="64" cy="71" r="42" fill="#b96a42"/>
  <path d="M40 58c7-13 18-17 24-18 6 1 17 5 24 18-9 15-39 15-48 0Z" fill="#fff3df"/>
  <path d="M48 64c4 8 13 10 16 10s12-2 16-10" fill="none" stroke="#7a3f2d" stroke-width="6" stroke-linecap="round"/>
  <circle cx="50" cy="62" r="5" fill="#2d211b"/>
  <circle cx="78" cy="62" r="5" fill="#2d211b"/>
  <ellipse cx="64" cy="77" rx="6" ry="5" fill="#2d211b"/>
  <path d="M53 87c6 6 16 6 22 0" fill="none" stroke="#2d211b" stroke-width="4" stroke-linecap="round"/>
  <path d="M37 97c15 10 39 10 54 0" fill="none" stroke="#d6ad73" stroke-width="7" stroke-linecap="round"/>
</svg>
