<svg xmlns="http://www.w3.org/2000/svg" viewBox="0 0 128 128" role="img" aria-label="Seal mascot">
  <rect width="128" height="128" rx="36" fill="#eef3f3"/>
  <path d="M28 83c4-31 25-48 54-42 21 4 34 20 31 39-4 24-32 39-60 32-17-4-27-14-25-29Z" fill="#c6c5bd"/>
  <ellipse cx="67" cy="67" rx="38" ry="32" fill="#d9d7ce"/>
  <circle cx="52" cy="63" r="5" fill="#2f2b28"/>
  <circle cx="79" cy="63" r="5" fill="#2f2b28"/>
  <ellipse cx="66" cy="73" rx="7" ry="5" fill="#3d3732"/>
  <path d="M55 83c7 6 16 6 23 0" fill="none" stroke="#3d3732" stroke-width="4" stroke-linecap="round"/>
  <path d="M36 92c-12 7-22 5-28-5 12-5 22-4 31 3" fill="#b5b4ad"/>
  <path d="M93 94c9 10 18 14 28 10-3-12-12-18-26-18" fill="#b5b4ad"/>
  <circle cx="44" cy="76" r="5" fill="#d99d93"/>
  <circle cx="87" cy="76" r="5" fill="#d99d93"/>
</svg>
